<svg width="190" height="134" viewBox="0 0 190 134" fill="none" xmlns="http://www.w3.org/2000/svg">
<rect width="190" height="134" fill="#E5E5E5"/>
<path
id="signatureSVG" d="M29.4781 39.8521C27.492 28.1563 25.5618 14.478 17.7232 4.77575C14.2873 0.523036 11.6331 5.39807 10.8936 8.71524C5.4329 33.2113 4.06186 57.8252 3.2621 82.8104C2.96152 92.2008 1.57967 134.586 20.7268 130.414C32.0744 127.941 43.8951 90.2983 39.4395 101.024C38.284 103.805 34.9181 123.635 39.2412 125.302C41.3472 126.114 42.2646 125.296 43.4025 123.418C51.5885 109.915 56.9346 92.5462 60.0128 77.1563C63.177 61.3362 66.6349 45.2349 66.8802 29.0571C66.8961 28.0141 66.495 14.1125 65.4747 14.4072C62.5296 15.2579 62.1377 39.9952 61.8937 42.0974C59.9446 58.8902 57.7197 75.7854 56.5747 92.6606C55.9501 101.865 55.0564 112.007 57.8811 120.989C59.874 127.326 67.6213 119.203 68.869 116.933C71.2349 112.629 73.4372 106.916 74.4097 102.027C75.4966 96.5629 74.8921 103.124 74.5613 105.188C73.9772 108.832 72.6281 119.805 76.8271 121.707C78.7151 122.562 83.0044 119.968 83.9892 118.406C94.4196 101.859 97.0105 77.9807 100.177 59.2201C102.232 47.0377 103.451 34.7139 103.256 22.3533C103.185 17.8466 104.048 10.0816 101.623 5.91006C99.4443 2.16215 97.5681 14.6659 97.4879 15.282C95.6976 29.0265 94.739 42.9621 94.041 56.7998C93.513 67.2676 93.2961 77.7413 92.6646 88.2049C92.226 95.473 89.9769 105.696 94.945 111.906C96.3339 113.642 101.073 121.494 103.387 120.488C108.792 118.138 111.47 106.329 112.795 101.178C113.762 97.4147 114.543 93.4978 114.611 89.5988C114.644 87.7395 110.296 81.648 110.156 84.4666C110.072 86.1431 112.784 86.0487 114.051 86.1229C121.001 86.5302 127.56 84.1033 134.004 81.7956C151.398 75.5658 168.547 69.1753 186.686 65.4661" stroke="black" stroke-width="6" stroke-linecap="round"/>
</svg>
